solid 
 facet normal  9.927089e-01  1.205367e-01  0.000000e+00
   outer loop
     vertex -1.649700e+00 -2.649700e+00  7.476670e+01
     vertex -1.649700e+00 -2.649700e+00 -2.333000e-01
     vertex -1.678758e+00 -2.410384e+00 -2.333000e-01
   endloop
 endfacet
 facet normal  9.350162e-01  3.546049e-01  0.000000e+00
   outer loop
     vertex -1.678758e+00 -2.410384e+00  7.476670e+01
     vertex -1.678758e+00 -2.410384e+00 -2.333000e-01
     vertex -1.764244e+00 -2.184977e+00 -2.333000e-01
   endloop
 endfacet
 facet normal  9.927089e-01  1.205367e-01  0.000000e+00
   outer loop
     vertex -1.678758e+00 -2.410384e+00  7.476670e+01
     vertex -1.649700e+00 -2.649700e+00  7.476670e+01
     vertex -1.678758e+00 -2.410384e+00 -2.333000e-01
   endloop
 endfacet
 facet normal  9.350162e-01  3.546049e-01  0.000000e+00
   outer loop
     vertex -1.764244e+00 -2.184977e+00  7.476670e+01
     vertex -1.678758e+00 -2.410384e+00  7.476670e+01
     vertex -1.764244e+00 -2.184977e+00 -2.333000e-01
   endloop
 endfacet
 facet normal  8.229839e-01  5.680647e-01  0.000000e+00
   outer loop
     vertex -1.901189e+00 -1.986577e+00  7.476670e+01
     vertex -1.764244e+00 -2.184977e+00 -2.333000e-01
     vertex -1.901189e+00 -1.986577e+00 -2.333000e-01
   endloop
 endfacet
 facet normal  8.229839e-01  5.680647e-01  0.000000e+00
   outer loop
     vertex -1.901189e+00 -1.986577e+00  7.476670e+01
     vertex -1.764244e+00 -2.184977e+00  7.476670e+01
     vertex -1.764244e+00 -2.184977e+00 -2.333000e-01
   endloop
 endfacet
 facet normal  6.631227e-01  7.485107e-01  0.000000e+00
   outer loop
     vertex -2.081635e+00 -1.826716e+00  7.476670e+01
     vertex -1.901189e+00 -1.986577e+00 -2.333000e-01
     vertex -2.081635e+00 -1.826716e+00 -2.333000e-01
   endloop
 endfacet
 facet normal  6.631227e-01  7.485107e-01  0.000000e+00
   outer loop
     vertex -2.081635e+00 -1.826716e+00  7.476670e+01
     vertex -1.901189e+00 -1.986577e+00  7.476670e+01
     vertex -1.901189e+00 -1.986577e+00 -2.333000e-01
   endloop
 endfacet
 facet normal  4.647232e-01  8.854560e-01  0.000000e+00
   outer loop
     vertex -2.295095e+00 -1.714684e+00  7.476670e+01
     vertex -2.081635e+00 -1.826716e+00 -2.333000e-01
     vertex -2.295095e+00 -1.714684e+00 -2.333000e-01
   endloop
 endfacet
 facet normal  4.647232e-01  8.854560e-01  0.000000e+00
   outer loop
     vertex -2.295095e+00 -1.714684e+00  7.476670e+01
     vertex -2.081635e+00 -1.826716e+00  7.476670e+01
     vertex -2.081635e+00 -1.826716e+00 -2.333000e-01
   endloop
 endfacet
 facet normal  2.393157e-01  9.709418e-01  0.000000e+00
   outer loop
     vertex -2.529163e+00 -1.656991e+00  7.476670e+01
     vertex -2.295095e+00 -1.714684e+00 -2.333000e-01
     vertex -2.529163e+00 -1.656991e+00 -2.333000e-01
   endloop
 endfacet
 facet normal  0.000000e+00  1.000000e+00  0.000000e+00
   outer loop
     vertex -2.529163e+00 -1.656991e+00  7.476670e+01
     vertex -2.529163e+00 -1.656991e+00 -2.333000e-01
     vertex -2.770237e+00 -1.656991e+00 -2.333000e-01
   endloop
 endfacet
 facet normal  2.393157e-01  9.709418e-01  0.000000e+00
   outer loop
     vertex -2.529163e+00 -1.656991e+00  7.476670e+01
     vertex -2.295095e+00 -1.714684e+00  7.476670e+01
     vertex -2.295095e+00 -1.714684e+00 -2.333000e-01
   endloop
 endfacet
 facet normal -0.000000e+00  1.000000e+00  0.000000e+00
   outer loop
     vertex -2.770237e+00 -1.656991e+00  7.476670e+01
     vertex -2.529163e+00 -1.656991e+00  7.476670e+01
     vertex -2.770237e+00 -1.656991e+00 -2.333000e-01
   endloop
 endfacet
 facet normal -2.393157e-01  9.709418e-01  0.000000e+00
   outer loop
     vertex -3.004305e+00 -1.714684e+00  7.476670e+01
     vertex -2.770237e+00 -1.656991e+00 -2.333000e-01
     vertex -3.004305e+00 -1.714684e+00 -2.333000e-01
   endloop
 endfacet
 facet normal -2.393157e-01  9.709418e-01  0.000000e+00
   outer loop
     vertex -3.004305e+00 -1.714684e+00  7.476670e+01
     vertex -2.770237e+00 -1.656991e+00  7.476670e+01
     vertex -2.770237e+00 -1.656991e+00 -2.333000e-01
   endloop
 endfacet
 facet normal -4.647232e-01  8.854560e-01  0.000000e+00
   outer loop
     vertex -3.217765e+00 -1.826716e+00  7.476670e+01
     vertex -3.004305e+00 -1.714684e+00 -2.333000e-01
     vertex -3.217765e+00 -1.826716e+00 -2.333000e-01
   endloop
 endfacet
 facet normal -4.647232e-01  8.854560e-01  0.000000e+00
   outer loop
     vertex -3.217765e+00 -1.826716e+00  7.476670e+01
     vertex -3.004305e+00 -1.714684e+00  7.476670e+01
     vertex -3.004305e+00 -1.714684e+00 -2.333000e-01
   endloop
 endfacet
 facet normal -6.631227e-01  7.485107e-01  0.000000e+00
   outer loop
     vertex -3.398211e+00 -1.986577e+00  7.476670e+01
     vertex -3.217765e+00 -1.826716e+00 -2.333000e-01
     vertex -3.398211e+00 -1.986577e+00 -2.333000e-01
   endloop
 endfacet
 facet normal -6.631227e-01  7.485107e-01  0.000000e+00
   outer loop
     vertex -3.398211e+00 -1.986577e+00  7.476670e+01
     vertex -3.217765e+00 -1.826716e+00  7.476670e+01
     vertex -3.217765e+00 -1.826716e+00 -2.333000e-01
   endloop
 endfacet
 facet normal -8.229839e-01  5.680647e-01  0.000000e+00
   outer loop
     vertex -3.535156e+00 -2.184977e+00  7.476670e+01
     vertex -3.398211e+00 -1.986577e+00 -2.333000e-01
     vertex -3.535156e+00 -2.184977e+00 -2.333000e-01
   endloop
 endfacet
 facet normal -8.229839e-01  5.680647e-01  0.000000e+00
   outer loop
     vertex -3.535156e+00 -2.184977e+00  7.476670e+01
     vertex -3.398211e+00 -1.986577e+00  7.476670e+01
     vertex -3.398211e+00 -1.986577e+00 -2.333000e-01
   endloop
 endfacet
 facet normal -9.350162e-01  3.546049e-01  0.000000e+00
   outer loop
     vertex -3.620642e+00 -2.410384e+00  7.476670e+01
     vertex -3.535156e+00 -2.184977e+00  7.476670e+01
     vertex -3.535156e+00 -2.184977e+00 -2.333000e-01
   endloop
 endfacet
 facet normal -9.350162e-01  3.546049e-01  0.000000e+00
   outer loop
     vertex -3.620642e+00 -2.410384e+00  7.476670e+01
     vertex -3.535156e+00 -2.184977e+00 -2.333000e-01
     vertex -3.620642e+00 -2.410384e+00 -2.333000e-01
   endloop
 endfacet
 facet normal -9.927089e-01  1.205367e-01  0.000000e+00
   outer loop
     vertex -3.620642e+00 -2.410384e+00  7.476670e+01
     vertex -3.620642e+00 -2.410384e+00 -2.333000e-01
     vertex -3.649700e+00 -2.649700e+00 -2.333000e-01
   endloop
 endfacet
 facet normal -9.927089e-01  1.205367e-01  0.000000e+00
   outer loop
     vertex -3.649700e+00 -2.649700e+00  7.476670e+01
     vertex -3.620642e+00 -2.410384e+00  7.476670e+01
     vertex -3.649700e+00 -2.649700e+00 -2.333000e-01
   endloop
 endfacet
 facet normal -9.927089e-01 -1.205367e-01  0.000000e+00
   outer loop
     vertex -3.620642e+00 -2.889016e+00  7.476670e+01
     vertex -3.649700e+00 -2.649700e+00  7.476670e+01
     vertex -3.649700e+00 -2.649700e+00 -2.333000e-01
   endloop
 endfacet
 facet normal -9.927089e-01 -1.205367e-01 -0.000000e+00
   outer loop
     vertex -3.620642e+00 -2.889016e+00  7.476670e+01
     vertex -3.649700e+00 -2.649700e+00 -2.333000e-01
     vertex -3.620642e+00 -2.889016e+00 -2.333000e-01
   endloop
 endfacet
 facet normal -9.350162e-01 -3.546049e-01  0.000000e+00
   outer loop
     vertex -3.535156e+00 -3.114423e+00  7.476670e+01
     vertex -3.620642e+00 -2.889016e+00  7.476670e+01
     vertex -3.620642e+00 -2.889016e+00 -2.333000e-01
   endloop
 endfacet
 facet normal -9.350162e-01 -3.546049e-01 -0.000000e+00
   outer loop
     vertex -3.535156e+00 -3.114423e+00  7.476670e+01
     vertex -3.620642e+00 -2.889016e+00 -2.333000e-01
     vertex -3.535156e+00 -3.114423e+00 -2.333000e-01
   endloop
 endfacet
 facet normal -8.229839e-01 -5.680647e-01  0.000000e+00
   outer loop
     vertex -3.398211e+00 -3.312823e+00  7.476670e+01
     vertex -3.535156e+00 -3.114423e+00  7.476670e+01
     vertex -3.535156e+00 -3.114423e+00 -2.333000e-01
   endloop
 endfacet
 facet normal -8.229839e-01 -5.680647e-01 -0.000000e+00
   outer loop
     vertex -3.398211e+00 -3.312823e+00  7.476670e+01
     vertex -3.535156e+00 -3.114423e+00 -2.333000e-01
     vertex -3.398211e+00 -3.312823e+00 -2.333000e-01
   endloop
 endfacet
 facet normal -6.631227e-01 -7.485107e-01  0.000000e+00
   outer loop
     vertex -3.217765e+00 -3.472684e+00  7.476670e+01
     vertex -3.398211e+00 -3.312823e+00  7.476670e+01
     vertex -3.398211e+00 -3.312823e+00 -2.333000e-01
   endloop
 endfacet
 facet normal -6.631227e-01 -7.485107e-01 -0.000000e+00
   outer loop
     vertex -3.217765e+00 -3.472684e+00  7.476670e+01
     vertex -3.398211e+00 -3.312823e+00 -2.333000e-01
     vertex -3.217765e+00 -3.472684e+00 -2.333000e-01
   endloop
 endfacet
 facet normal -4.647232e-01 -8.854560e-01 -0.000000e+00
   outer loop
     vertex -3.217765e+00 -3.472684e+00  7.476670e+01
     vertex -3.217765e+00 -3.472684e+00 -2.333000e-01
     vertex -3.004305e+00 -3.584716e+00 -2.333000e-01
   endloop
 endfacet
 facet normal -4.647232e-01 -8.854560e-01 -0.000000e+00
   outer loop
     vertex -3.004305e+00 -3.584716e+00  7.476670e+01
     vertex -3.217765e+00 -3.472684e+00  7.476670e+01
     vertex -3.004305e+00 -3.584716e+00 -2.333000e-01
   endloop
 endfacet
 facet normal -2.393157e-01 -9.709418e-01  0.000000e+00
   outer loop
     vertex -2.770237e+00 -3.642409e+00  7.476670e+01
     vertex -3.004305e+00 -3.584716e+00  7.476670e+01
     vertex -3.004305e+00 -3.584716e+00 -2.333000e-01
   endloop
 endfacet
 facet normal -2.393157e-01 -9.709418e-01 -0.000000e+00
   outer loop
     vertex -2.770237e+00 -3.642409e+00  7.476670e+01
     vertex -3.004305e+00 -3.584716e+00 -2.333000e-01
     vertex -2.770237e+00 -3.642409e+00 -2.333000e-01
   endloop
 endfacet
 facet normal -1.842133e-15 -1.000000e+00  0.000000e+00
   outer loop
     vertex -2.529163e+00 -3.642409e+00  7.476670e+01
     vertex -2.770237e+00 -3.642409e+00  7.476670e+01
     vertex -2.770237e+00 -3.642409e+00 -2.333000e-01
   endloop
 endfacet
 facet normal -1.842133e-15 -1.000000e+00 -0.000000e+00
   outer loop
     vertex -2.529163e+00 -3.642409e+00  7.476670e+01
     vertex -2.770237e+00 -3.642409e+00 -2.333000e-01
     vertex -2.529163e+00 -3.642409e+00 -2.333000e-01
   endloop
 endfacet
 facet normal  2.393157e-01 -9.709418e-01  0.000000e+00
   outer loop
     vertex -2.295095e+00 -3.584716e+00  7.476670e+01
     vertex -2.529163e+00 -3.642409e+00  7.476670e+01
     vertex -2.529163e+00 -3.642409e+00 -2.333000e-01
   endloop
 endfacet
 facet normal  2.393157e-01 -9.709418e-01  0.000000e+00
   outer loop
     vertex -2.295095e+00 -3.584716e+00  7.476670e+01
     vertex -2.529163e+00 -3.642409e+00 -2.333000e-01
     vertex -2.295095e+00 -3.584716e+00 -2.333000e-01
   endloop
 endfacet
 facet normal  4.647232e-01 -8.854560e-01  0.000000e+00
   outer loop
     vertex -2.081635e+00 -3.472684e+00  7.476670e+01
     vertex -2.295095e+00 -3.584716e+00  7.476670e+01
     vertex -2.295095e+00 -3.584716e+00 -2.333000e-01
   endloop
 endfacet
 facet normal  4.647232e-01 -8.854560e-01  0.000000e+00
   outer loop
     vertex -2.081635e+00 -3.472684e+00  7.476670e+01
     vertex -2.295095e+00 -3.584716e+00 -2.333000e-01
     vertex -2.081635e+00 -3.472684e+00 -2.333000e-01
   endloop
 endfacet
 facet normal  6.631227e-01 -7.485107e-01  0.000000e+00
   outer loop
     vertex -2.081635e+00 -3.472684e+00  7.476670e+01
     vertex -2.081635e+00 -3.472684e+00 -2.333000e-01
     vertex -1.901189e+00 -3.312823e+00 -2.333000e-01
   endloop
 endfacet
 facet normal  6.631227e-01 -7.485107e-01  0.000000e+00
   outer loop
     vertex -1.901189e+00 -3.312823e+00  7.476670e+01
     vertex -2.081635e+00 -3.472684e+00  7.476670e+01
     vertex -1.901189e+00 -3.312823e+00 -2.333000e-01
   endloop
 endfacet
 facet normal  8.229839e-01 -5.680647e-01  0.000000e+00
   outer loop
     vertex -1.901189e+00 -3.312823e+00  7.476670e+01
     vertex -1.901189e+00 -3.312823e+00 -2.333000e-01
     vertex -1.764244e+00 -3.114423e+00 -2.333000e-01
   endloop
 endfacet
 facet normal  8.229839e-01 -5.680647e-01  0.000000e+00
   outer loop
     vertex -1.764244e+00 -3.114423e+00  7.476670e+01
     vertex -1.901189e+00 -3.312823e+00  7.476670e+01
     vertex -1.764244e+00 -3.114423e+00 -2.333000e-01
   endloop
 endfacet
 facet normal  9.350162e-01 -3.546049e-01  0.000000e+00
   outer loop
     vertex -1.678758e+00 -2.889016e+00  7.476670e+01
     vertex -1.764244e+00 -3.114423e+00 -2.333000e-01
     vertex -1.678758e+00 -2.889016e+00 -2.333000e-01
   endloop
 endfacet
 facet normal  9.927089e-01 -1.205367e-01  0.000000e+00
   outer loop
     vertex -1.678758e+00 -2.889016e+00  7.476670e+01
     vertex -1.678758e+00 -2.889016e+00 -2.333000e-01
     vertex -1.649700e+00 -2.649700e+00 -2.333000e-01
   endloop
 endfacet
 facet normal  9.350162e-01 -3.546049e-01  0.000000e+00
   outer loop
     vertex -1.678758e+00 -2.889016e+00  7.476670e+01
     vertex -1.764244e+00 -3.114423e+00  7.476670e+01
     vertex -1.764244e+00 -3.114423e+00 -2.333000e-01
   endloop
 endfacet
 facet normal  9.927089e-01 -1.205367e-01  0.000000e+00
   outer loop
     vertex -1.649700e+00 -2.649700e+00  7.476670e+01
     vertex -1.678758e+00 -2.889016e+00  7.476670e+01
     vertex -1.649700e+00 -2.649700e+00 -2.333000e-01
   endloop
 endfacet
 facet normal  0.000000e+00  0.000000e+00  1.000000e+00
   outer loop
     vertex -3.398211e+00 -1.986577e+00  7.476670e+01
     vertex -3.535156e+00 -2.184977e+00  7.476670e+01
     vertex -3.620642e+00 -2.410384e+00  7.476670e+01
   endloop
 endfacet
 facet normal  0.000000e+00  0.000000e+00  1.000000e+00
   outer loop
     vertex -1.901189e+00 -3.312823e+00  7.476670e+01
     vertex -2.529163e+00 -3.642409e+00  7.476670e+01
     vertex -2.295095e+00 -3.584716e+00  7.476670e+01
   endloop
 endfacet
 facet normal  0.000000e+00  0.000000e+00  1.000000e+00
   outer loop
     vertex -1.901189e+00 -3.312823e+00  7.476670e+01
     vertex -2.295095e+00 -3.584716e+00  7.476670e+01
     vertex -2.081635e+00 -3.472684e+00  7.476670e+01
   endloop
 endfacet
 facet normal  0.000000e+00  0.000000e+00  1.000000e+00
   outer loop
     vertex -1.678758e+00 -2.889016e+00  7.476670e+01
     vertex -1.901189e+00 -3.312823e+00  7.476670e+01
     vertex -1.764244e+00 -3.114423e+00  7.476670e+01
   endloop
 endfacet
 facet normal  0.000000e+00  0.000000e+00  1.000000e+00
   outer loop
     vertex -1.764244e+00 -2.184977e+00  7.476670e+01
     vertex -1.649700e+00 -2.649700e+00  7.476670e+01
     vertex -1.678758e+00 -2.410384e+00  7.476670e+01
   endloop
 endfacet
 facet normal  0.000000e+00  0.000000e+00  1.000000e+00
   outer loop
     vertex -1.764244e+00 -2.184977e+00  7.476670e+01
     vertex -3.535156e+00 -3.114423e+00  7.476670e+01
     vertex -3.398211e+00 -3.312823e+00  7.476670e+01
   endloop
 endfacet
 facet normal  0.000000e+00  0.000000e+00  1.000000e+00
   outer loop
     vertex -1.764244e+00 -2.184977e+00  7.476670e+01
     vertex -3.398211e+00 -3.312823e+00  7.476670e+01
     vertex -3.217765e+00 -3.472684e+00  7.476670e+01
   endloop
 endfacet
 facet normal  0.000000e+00  0.000000e+00  1.000000e+00
   outer loop
     vertex -1.764244e+00 -2.184977e+00  7.476670e+01
     vertex -3.217765e+00 -3.472684e+00  7.476670e+01
     vertex -3.004305e+00 -3.584716e+00  7.476670e+01
   endloop
 endfacet
 facet normal  0.000000e+00  0.000000e+00  1.000000e+00
   outer loop
     vertex -1.764244e+00 -2.184977e+00  7.476670e+01
     vertex -3.004305e+00 -3.584716e+00  7.476670e+01
     vertex -2.770237e+00 -3.642409e+00  7.476670e+01
   endloop
 endfacet
 facet normal  0.000000e+00  0.000000e+00  1.000000e+00
   outer loop
     vertex -1.764244e+00 -2.184977e+00  7.476670e+01
     vertex -2.770237e+00 -3.642409e+00  7.476670e+01
     vertex -2.529163e+00 -3.642409e+00  7.476670e+01
   endloop
 endfacet
 facet normal  0.000000e+00  0.000000e+00  1.000000e+00
   outer loop
     vertex -1.764244e+00 -2.184977e+00  7.476670e+01
     vertex -1.678758e+00 -2.889016e+00  7.476670e+01
     vertex -1.649700e+00 -2.649700e+00  7.476670e+01
   endloop
 endfacet
 facet normal  0.000000e+00  0.000000e+00  1.000000e+00
   outer loop
     vertex -1.764244e+00 -2.184977e+00  7.476670e+01
     vertex -2.529163e+00 -3.642409e+00  7.476670e+01
     vertex -1.901189e+00 -3.312823e+00  7.476670e+01
   endloop
 endfacet
 facet normal  0.000000e+00  0.000000e+00  1.000000e+00
   outer loop
     vertex -1.764244e+00 -2.184977e+00  7.476670e+01
     vertex -1.901189e+00 -3.312823e+00  7.476670e+01
     vertex -1.678758e+00 -2.889016e+00  7.476670e+01
   endloop
 endfacet
 facet normal  0.000000e+00  0.000000e+00  1.000000e+00
   outer loop
     vertex -2.081635e+00 -1.826716e+00  7.476670e+01
     vertex -2.295095e+00 -1.714684e+00  7.476670e+01
     vertex -2.529163e+00 -1.656991e+00  7.476670e+01
   endloop
 endfacet
 facet normal  0.000000e+00  0.000000e+00  1.000000e+00
   outer loop
     vertex -1.901189e+00 -1.986577e+00  7.476670e+01
     vertex -2.529163e+00 -1.656991e+00  7.476670e+01
     vertex -2.770237e+00 -1.656991e+00  7.476670e+01
   endloop
 endfacet
 facet normal  0.000000e+00  0.000000e+00  1.000000e+00
   outer loop
     vertex -1.901189e+00 -1.986577e+00  7.476670e+01
     vertex -2.770237e+00 -1.656991e+00  7.476670e+01
     vertex -3.004305e+00 -1.714684e+00  7.476670e+01
   endloop
 endfacet
 facet normal  0.000000e+00  0.000000e+00  1.000000e+00
   outer loop
     vertex -1.901189e+00 -1.986577e+00  7.476670e+01
     vertex -3.004305e+00 -1.714684e+00  7.476670e+01
     vertex -3.217765e+00 -1.826716e+00  7.476670e+01
   endloop
 endfacet
 facet normal  0.000000e+00  0.000000e+00  1.000000e+00
   outer loop
     vertex -1.901189e+00 -1.986577e+00  7.476670e+01
     vertex -3.217765e+00 -1.826716e+00  7.476670e+01
     vertex -3.398211e+00 -1.986577e+00  7.476670e+01
   endloop
 endfacet
 facet normal  0.000000e+00  0.000000e+00  1.000000e+00
   outer loop
     vertex -1.901189e+00 -1.986577e+00  7.476670e+01
     vertex -3.620642e+00 -2.410384e+00  7.476670e+01
     vertex -3.649700e+00 -2.649700e+00  7.476670e+01
   endloop
 endfacet
 facet normal  0.000000e+00  0.000000e+00  1.000000e+00
   outer loop
     vertex -1.901189e+00 -1.986577e+00  7.476670e+01
     vertex -3.649700e+00 -2.649700e+00  7.476670e+01
     vertex -3.620642e+00 -2.889016e+00  7.476670e+01
   endloop
 endfacet
 facet normal  0.000000e+00  0.000000e+00  1.000000e+00
   outer loop
     vertex -1.901189e+00 -1.986577e+00  7.476670e+01
     vertex -3.620642e+00 -2.889016e+00  7.476670e+01
     vertex -3.535156e+00 -3.114423e+00  7.476670e+01
   endloop
 endfacet
 facet normal  0.000000e+00  0.000000e+00  1.000000e+00
   outer loop
     vertex -1.901189e+00 -1.986577e+00  7.476670e+01
     vertex -3.398211e+00 -1.986577e+00  7.476670e+01
     vertex -3.620642e+00 -2.410384e+00  7.476670e+01
   endloop
 endfacet
 facet normal  0.000000e+00  0.000000e+00  1.000000e+00
   outer loop
     vertex -1.901189e+00 -1.986577e+00  7.476670e+01
     vertex -3.535156e+00 -3.114423e+00  7.476670e+01
     vertex -1.764244e+00 -2.184977e+00  7.476670e+01
   endloop
 endfacet
 facet normal  0.000000e+00  0.000000e+00  1.000000e+00
   outer loop
     vertex -1.901189e+00 -1.986577e+00  7.476670e+01
     vertex -2.081635e+00 -1.826716e+00  7.476670e+01
     vertex -2.529163e+00 -1.656991e+00  7.476670e+01
   endloop
 endfacet
 facet normal  0.000000e+00  0.000000e+00 -1.000000e+00
   outer loop
     vertex -3.398211e+00 -1.986577e+00 -2.333000e-01
     vertex -3.620642e+00 -2.410384e+00 -2.333000e-01
     vertex -3.535156e+00 -2.184977e+00 -2.333000e-01
   endloop
 endfacet
 facet normal  0.000000e+00  0.000000e+00 -1.000000e+00
   outer loop
     vertex -1.901189e+00 -3.312823e+00 -2.333000e-01
     vertex -2.295095e+00 -3.584716e+00 -2.333000e-01
     vertex -2.529163e+00 -3.642409e+00 -2.333000e-01
   endloop
 endfacet
 facet normal  0.000000e+00  0.000000e+00 -1.000000e+00
   outer loop
     vertex -1.901189e+00 -3.312823e+00 -2.333000e-01
     vertex -2.081635e+00 -3.472684e+00 -2.333000e-01
     vertex -2.295095e+00 -3.584716e+00 -2.333000e-01
   endloop
 endfacet
 facet normal  0.000000e+00  0.000000e+00 -1.000000e+00
   outer loop
     vertex -1.678758e+00 -2.889016e+00 -2.333000e-01
     vertex -1.764244e+00 -3.114423e+00 -2.333000e-01
     vertex -1.901189e+00 -3.312823e+00 -2.333000e-01
   endloop
 endfacet
 facet normal  0.000000e+00  0.000000e+00 -1.000000e+00
   outer loop
     vertex -1.764244e+00 -2.184977e+00 -2.333000e-01
     vertex -1.678758e+00 -2.410384e+00 -2.333000e-01
     vertex -1.649700e+00 -2.649700e+00 -2.333000e-01
   endloop
 endfacet
 facet normal  0.000000e+00  0.000000e+00 -1.000000e+00
   outer loop
     vertex -1.764244e+00 -2.184977e+00 -2.333000e-01
     vertex -3.398211e+00 -3.312823e+00 -2.333000e-01
     vertex -3.535156e+00 -3.114423e+00 -2.333000e-01
   endloop
 endfacet
 facet normal  0.000000e+00  0.000000e+00 -1.000000e+00
   outer loop
     vertex -1.764244e+00 -2.184977e+00 -2.333000e-01
     vertex -3.217765e+00 -3.472684e+00 -2.333000e-01
     vertex -3.398211e+00 -3.312823e+00 -2.333000e-01
   endloop
 endfacet
 facet normal  0.000000e+00  0.000000e+00 -1.000000e+00
   outer loop
     vertex -1.764244e+00 -2.184977e+00 -2.333000e-01
     vertex -3.004305e+00 -3.584716e+00 -2.333000e-01
     vertex -3.217765e+00 -3.472684e+00 -2.333000e-01
   endloop
 endfacet
 facet normal  0.000000e+00  0.000000e+00 -1.000000e+00
   outer loop
     vertex -1.764244e+00 -2.184977e+00 -2.333000e-01
     vertex -2.770237e+00 -3.642409e+00 -2.333000e-01
     vertex -3.004305e+00 -3.584716e+00 -2.333000e-01
   endloop
 endfacet
 facet normal  0.000000e+00  0.000000e+00 -1.000000e+00
   outer loop
     vertex -1.764244e+00 -2.184977e+00 -2.333000e-01
     vertex -2.529163e+00 -3.642409e+00 -2.333000e-01
     vertex -2.770237e+00 -3.642409e+00 -2.333000e-01
   endloop
 endfacet
 facet normal  0.000000e+00  0.000000e+00 -1.000000e+00
   outer loop
     vertex -1.764244e+00 -2.184977e+00 -2.333000e-01
     vertex -1.649700e+00 -2.649700e+00 -2.333000e-01
     vertex -1.678758e+00 -2.889016e+00 -2.333000e-01
   endloop
 endfacet
 facet normal  0.000000e+00  0.000000e+00 -1.000000e+00
   outer loop
     vertex -1.764244e+00 -2.184977e+00 -2.333000e-01
     vertex -1.901189e+00 -3.312823e+00 -2.333000e-01
     vertex -2.529163e+00 -3.642409e+00 -2.333000e-01
   endloop
 endfacet
 facet normal  0.000000e+00 -0.000000e+00 -1.000000e+00
   outer loop
     vertex -1.764244e+00 -2.184977e+00 -2.333000e-01
     vertex -1.678758e+00 -2.889016e+00 -2.333000e-01
     vertex -1.901189e+00 -3.312823e+00 -2.333000e-01
   endloop
 endfacet
 facet normal  0.000000e+00  0.000000e+00 -1.000000e+00
   outer loop
     vertex -2.081635e+00 -1.826716e+00 -2.333000e-01
     vertex -2.529163e+00 -1.656991e+00 -2.333000e-01
     vertex -2.295095e+00 -1.714684e+00 -2.333000e-01
   endloop
 endfacet
 facet normal  0.000000e+00  0.000000e+00 -1.000000e+00
   outer loop
     vertex -1.901189e+00 -1.986577e+00 -2.333000e-01
     vertex -2.770237e+00 -1.656991e+00 -2.333000e-01
     vertex -2.529163e+00 -1.656991e+00 -2.333000e-01
   endloop
 endfacet
 facet normal  0.000000e+00  0.000000e+00 -1.000000e+00
   outer loop
     vertex -1.901189e+00 -1.986577e+00 -2.333000e-01
     vertex -3.004305e+00 -1.714684e+00 -2.333000e-01
     vertex -2.770237e+00 -1.656991e+00 -2.333000e-01
   endloop
 endfacet
 facet normal  0.000000e+00  0.000000e+00 -1.000000e+00
   outer loop
     vertex -1.901189e+00 -1.986577e+00 -2.333000e-01
     vertex -3.217765e+00 -1.826716e+00 -2.333000e-01
     vertex -3.004305e+00 -1.714684e+00 -2.333000e-01
   endloop
 endfacet
 facet normal  0.000000e+00  0.000000e+00 -1.000000e+00
   outer loop
     vertex -1.901189e+00 -1.986577e+00 -2.333000e-01
     vertex -3.398211e+00 -1.986577e+00 -2.333000e-01
     vertex -3.217765e+00 -1.826716e+00 -2.333000e-01
   endloop
 endfacet
 facet normal  0.000000e+00  0.000000e+00 -1.000000e+00
   outer loop
     vertex -1.901189e+00 -1.986577e+00 -2.333000e-01
     vertex -3.649700e+00 -2.649700e+00 -2.333000e-01
     vertex -3.620642e+00 -2.410384e+00 -2.333000e-01
   endloop
 endfacet
 facet normal  0.000000e+00  0.000000e+00 -1.000000e+00
   outer loop
     vertex -1.901189e+00 -1.986577e+00 -2.333000e-01
     vertex -3.620642e+00 -2.889016e+00 -2.333000e-01
     vertex -3.649700e+00 -2.649700e+00 -2.333000e-01
   endloop
 endfacet
 facet normal  0.000000e+00  0.000000e+00 -1.000000e+00
   outer loop
     vertex -1.901189e+00 -1.986577e+00 -2.333000e-01
     vertex -3.535156e+00 -3.114423e+00 -2.333000e-01
     vertex -3.620642e+00 -2.889016e+00 -2.333000e-01
   endloop
 endfacet
 facet normal -0.000000e+00  0.000000e+00 -1.000000e+00
   outer loop
     vertex -1.901189e+00 -1.986577e+00 -2.333000e-01
     vertex -3.620642e+00 -2.410384e+00 -2.333000e-01
     vertex -3.398211e+00 -1.986577e+00 -2.333000e-01
   endloop
 endfacet
 facet normal  0.000000e+00 -0.000000e+00 -1.000000e+00
   outer loop
     vertex -1.901189e+00 -1.986577e+00 -2.333000e-01
     vertex -1.764244e+00 -2.184977e+00 -2.333000e-01
     vertex -3.535156e+00 -3.114423e+00 -2.333000e-01
   endloop
 endfacet
 facet normal  0.000000e+00  0.000000e+00 -1.000000e+00
   outer loop
     vertex -1.901189e+00 -1.986577e+00 -2.333000e-01
     vertex -2.529163e+00 -1.656991e+00 -2.333000e-01
     vertex -2.081635e+00 -1.826716e+00 -2.333000e-01
   endloop
 endfacet
endsolid
