DBRep_DrawableShape

CASCADE Topology V3, (c) Open Cascade
Locations 1
1
              1               0               0            -200 
              0               1               0            -200 
              0               0               1               0 
Curve2ds 30
1 0 0 1 0 
1 0 0 1 0 
1 20 0 0 -1 
1 0 0 0 1 
1 0 -400 1 0 
1 0 0 1 0 
1 0 0 0 -1 
1 0 0 0 1 
1 0 0 0 1 
1 0 0 1 0 
1 0 0 1 0 
1 0 400 1 0 
1 20 0 0 1 
1 0 0 1 0 
1 20 0 0 1 
1 0 400 1 0 
1 20 0 0 -1 
1 400 0 0 1 
2 202.59999999999999 208.07089999999999 1 0 -0 1 15
1 0 8.8447999999999993 1 0 
1 0 0 0 1 
1 0 400 1 0 
1 0 -400 1 0 
1 0 400 1 0 
1 0 0 0 -1 
1 400 0 0 1 
1 6.2831853071795862 -0 0 1 
1 0 -0 0 1 
1 0 0 1 0 
2 0 0 1 0 -0 1 15
Curves 15
1 0 0 0 0 0 1 
1 0 0 20 -0 1 0 
1 0 400 0 0 0 1 
1 0 0 0 -0 1 0 
1 0 0 0 1 0 -0 
1 400 0 0 0 0 1 
1 0 0 20 1 0 -0 
1 0 400 20 1 0 -0 
1 400 0 20 -0 1 0 
2 2.6000000000000001 8.0709 20 0 0 1 1 0 -0 -0 1 0 15
1 0 400 0 1 0 -0 
1 400 400 0 0 0 1 
1 400 0 0 -0 1 0 
1 17.600000000000001 8.0708999999999964 11.155200000000001 0 0 1 
2 2.6000000000000001 8.0709 11.155200000000001 0 0 1 1 0 -0 -0 1 0 15
Polygon3D 0
PolygonOnTriangulations 24
2 1 2 
p 1.6000000008 1 0 20 
2 1 3 
p 1.6000000008 1 0 20 
2 2 4 
p 1.6000000008 1 0 400 
2 1 2 
p 1.6000000008 1 0 400 
2 3 4 
p 1.6000000008 1 0 20 
2 1 3 
p 1.6000000008 1 0 20 
2 1 3 
p 1.6000000008 1 0 400 
2 1 2 
p 1.6000000008 1 0 400 
2 1 2 
p 1.6000000008 1 0 400 
2 1 3 
p 1.6000000008 1 0 400 
2 1 2 
p 1.6000000008 1 0 20 
2 2 4 
p 1.6000000008 1 0 20 
2 3 4 
p 1.6000000008 1 0 400 
2 1 3 
p 1.6000000008 1 0 400 
2 3 4 
p 1.6000000008 1 0 400 
2 2 4 
p 1.6000000008 1 0 400 
2 2 4 
p 1.6000000008 1 0 400 
2 3 4 
p 1.6000000008 1 0 400 
2 1 2 
p 1.6000000008 1 0 400 
2 2 4 
p 1.6000000008 1 0 400 
2 3 4 
p 1.6000000008 1 0 20 
2 2 4 
p 1.6000000008 1 0 20 
2 1 3 
p 1.6000000008 1 0 400 
2 3 4 
p 1.6000000008 1 0 400 
Surfaces 8
1 0 0 0 1 0 -0 0 0 1 0 -1 0 
1 0 0 0 -0 1 0 0 0 1 1 0 -0 
1 0 0 20 0 0 1 1 0 -0 -0 1 0 
1 0 400 0 -0 1 0 0 0 1 1 0 -0 
1 0 0 0 0 0 1 1 0 -0 -0 1 0 
1 400 0 0 1 0 -0 0 0 1 0 -1 0 
2 2.6000000000000001 8.0709 11.155200000000001 0 0 1 1 0 -0 -0 1 0 15
1 2.6000000000000001 8.0709 11.155200000000001 0 0 1 1 0 -0 -0 1 0 
Triangulations 6
4 2 1 0 1.4210854715202e-14
0 0 0 0 0 20 0 400 0 0 400 20 0 0 20 0 0 -400 20 -400 2 1 3 2 3 4 
4 2 1 0 1.4210854715202e-14
0 0 0 400 0 0 0 0 20 400 0 20 0 0 0 400 20 0 20 400 4 2 1 4 1 3 
4 2 1 0 2.00971834711523e-14
0 0 20 0 400 20 400 0 20 400 400 20 0 0 0 400 400 0 400 400 4 2 1 4 1 3 
4 2 1 0 1.4210854715202e-14
0 400 0 400 400 0 0 400 20 400 400 20 0 0 0 400 20 0 20 400 4 2 1 4 1 3 
4 2 1 0 2.00971834711523e-14
0 0 0 0 400 0 400 0 0 400 400 0 0 0 0 400 400 0 400 400 4 2 1 4 1 3 
4 2 1 0 1.4210854715202e-14
400 0 0 400 0 20 400 400 0 400 400 20 0 0 20 0 0 -400 20 -400 2 1 3 2 3 4 

TShapes 45
Ve
1e-07
0 0 20
0 0

0101101
*
Ve
1e-07
0 0 0
0 0

0101101
*
Ed
 1e-07 1 1 0
1  1 0 0 20
2  1 1 0 0 20
2  2 2 0 0 20
6  1 1 0
6  2 2 0
0

0101000
-45 0 +44 0 *
Ve
1e-07
0 400 20
0 0

0101101
*
Ed
 1e-07 1 1 0
1  2 0 0 400
2  3 1 0 0 400
2  4 3 0 0 400
6  3 1 0
6  4 3 0
0

0101000
-42 0 +45 0 *
Ve
1e-07
0 400 0
0 0

0101101
*
Ed
 1e-07 1 1 0
1  3 0 0 20
2  5 1 0 0 20
2  6 4 0 0 20
6  5 1 0
6  6 4 0
0

0101000
-42 0 +40 0 *
Ed
 1e-07 1 1 0
1  4 0 0 400
2  7 1 0 0 400
2  8 5 0 0 400
6  7 1 0
6  8 5 0
0

0101000
-40 0 +44 0 *
Wi

0101100
-43 0 -41 0 +39 0 +38 0 *
Fa
0  1e-07 1 0
2  1
0101000
+37 0 *
Ve
1e-07
400 0 0
0 0

0101101
*
Ed
 1e-07 1 1 0
1  5 0 0 400
2  9 2 0 0 400
2  10 5 0 0 400
6  9 2 0
6  10 5 0
0

0101000
-35 0 +44 0 *
Ve
1e-07
400 0 20
0 0

0101101
*
Ed
 1e-07 1 1 0
1  6 0 0 20
2  11 6 0 0 20
2  12 2 0 0 20
6  11 6 0
6  12 2 0
0

0101000
-33 0 +35 0 *
Ed
 1e-07 1 1 0
1  7 0 0 400
2  13 2 0 0 400
2  14 3 0 0 400
6  13 2 0
6  14 3 0
0

0101000
-33 0 +45 0 *
Wi

0101100
-34 0 -32 0 +31 0 +43 0 *
Fa
0  1e-07 2 0
2  2
0101000
+30 0 *
Ve
1e-07
400 400 20
0 0

0101101
*
Ed
 1e-07 1 1 0
1  8 0 0 400
2  15 4 0 0 400
2  16 3 0 0 400
6  15 4 0
6  16 3 0
0

0101000
-28 0 +42 0 *
Ed
 1e-07 1 1 0
1  9 0 0 400
2  17 6 0 0 400
2  18 3 0 0 400
6  17 6 0
6  18 3 0
0

0101000
-28 0 +33 0 *
Wi

0101100
-41 1 -27 1 +31 1 +26 1 *
Ve
1.00000003552714e-07
17.6 8.0709 20
0 0

0101101
*
Ed
 1e-07 1 1 0
1  10 0 0 6.28318530717959
2  19 3 1 0 6.28318530717959
2  20 7 0 0 6.28318530717959
0

0101000
+24 0 -24 0 *
Wi

0101100
-23 0 *
Fa
0  1e-07 3 1

0101000
+25 0 +22 0 *
Ve
1e-07
400 400 0
0 0

0101101
*
Ed
 1e-07 1 1 0
1  11 0 0 400
2  21 4 0 0 400
2  22 5 0 0 400
6  19 4 0
6  20 5 0
0

0101000
-20 0 +40 0 *
Ed
 1e-07 1 1 0
1  12 0 0 20
2  23 6 0 0 20
2  24 4 0 0 20
6  21 6 0
6  22 4 0
0

0101000
-28 0 +20 0 *
Wi

0101100
-19 0 -18 0 +27 0 +39 0 *
Fa
0  1e-07 4 0
2  4
0101000
+17 0 *
Ed
 1e-07 1 1 0
1  13 0 0 400
2  25 6 0 0 400
2  26 5 0 0 400
6  23 6 0
6  24 5 0
0

0101000
-20 0 +35 0 *
Wi

0101100
-38 0 -19 0 +15 0 +34 0 *
Fa
0  1e-07 5 0
2  5
0101000
+14 0 *
Wi

0101100
-32 0 -26 0 +18 0 +15 0 *
Fa
0  1e-07 6 0
2  6
0101000
+12 0 *
Ve
1e-07
17.6 8.0709 11.1552
0 0

0101101
*
Ed
 1e-07 1 1 0
1  14 0 0 8.8448
3  27 28CN 7 0 0 8.8448
0

0101000
+10 0 -24 0 *
Ed
 1e-07 1 1 0
1  15 0 0 6.28318530717959
2  29 7 0 0 6.28318530717959
2  30 8 0 0 6.28318530717959
0

0101000
+10 0 -10 0 *
Wi

0101100
-23 0 +9 0 +8 0 -9 0 *
Fa
0  1e-07 7 0

0101000
+7 0 *
Wi

0101100
-8 0 *
Fa
0  1e-07 8 0

0111000
-5 0 *
Sh

0101100
-36 1 -29 1 +21 0 +16 1 -13 1 +11 1 -6 0 +4 0 *
So

0100000
+3 0 *
Co

1100000
+2 0 *

+1 0 