solid 
 facet normal  9.961947e-01  8.715574e-02  0.000000e+00
   outer loop
     vertex  1.181932e+01 -3.480773e-01  8.870080e+01
     vertex  1.204720e+01 -2.952800e+00  8.870080e+01
     vertex  1.204720e+01 -2.952800e+00  1.370080e+01
   endloop
 endfacet
 facet normal  9.961947e-01  8.715574e-02  0.000000e+00
   outer loop
     vertex  1.181932e+01 -3.480773e-01  8.870080e+01
     vertex  1.204720e+01 -2.952800e+00  1.370080e+01
     vertex  1.181932e+01 -3.480773e-01  1.370080e+01
   endloop
 endfacet
 facet normal  9.659258e-01  2.588190e-01  0.000000e+00
   outer loop
     vertex  1.114259e+01  2.177502e+00  8.870080e+01
     vertex  1.181932e+01 -3.480773e-01  1.370080e+01
     vertex  1.114259e+01  2.177502e+00  1.370080e+01
   endloop
 endfacet
 facet normal  9.659258e-01  2.588190e-01  0.000000e+00
   outer loop
     vertex  1.114259e+01  2.177502e+00  8.870080e+01
     vertex  1.181932e+01 -3.480773e-01  8.870080e+01
     vertex  1.181932e+01 -3.480773e-01  1.370080e+01
   endloop
 endfacet
 facet normal  9.063078e-01  4.226183e-01  0.000000e+00
   outer loop
     vertex  1.003758e+01  4.547200e+00  8.870080e+01
     vertex  1.114259e+01  2.177502e+00  1.370080e+01
     vertex  1.003758e+01  4.547200e+00  1.370080e+01
   endloop
 endfacet
 facet normal  9.063078e-01  4.226183e-01  0.000000e+00
   outer loop
     vertex  1.003758e+01  4.547200e+00  8.870080e+01
     vertex  1.114259e+01  2.177502e+00  8.870080e+01
     vertex  1.114259e+01  2.177502e+00  1.370080e+01
   endloop
 endfacet
 facet normal  8.191520e-01  5.735764e-01  0.000000e+00
   outer loop
     vertex  8.537867e+00  6.689014e+00  8.870080e+01
     vertex  1.003758e+01  4.547200e+00  1.370080e+01
     vertex  8.537867e+00  6.689014e+00  1.370080e+01
   endloop
 endfacet
 facet normal  8.191520e-01  5.735764e-01  0.000000e+00
   outer loop
     vertex  8.537867e+00  6.689014e+00  8.870080e+01
     vertex  1.003758e+01  4.547200e+00  8.870080e+01
     vertex  1.003758e+01  4.547200e+00  1.370080e+01
   endloop
 endfacet
 facet normal  7.071068e-01  7.071068e-01  0.000000e+00
   outer loop
     vertex  6.689014e+00  8.537867e+00  8.870080e+01
     vertex  8.537867e+00  6.689014e+00  1.370080e+01
     vertex  6.689014e+00  8.537867e+00  1.370080e+01
   endloop
 endfacet
 facet normal  7.071068e-01  7.071068e-01  0.000000e+00
   outer loop
     vertex  6.689014e+00  8.537867e+00  8.870080e+01
     vertex  8.537867e+00  6.689014e+00  8.870080e+01
     vertex  8.537867e+00  6.689014e+00  1.370080e+01
   endloop
 endfacet
 facet normal  5.735764e-01  8.191520e-01  0.000000e+00
   outer loop
     vertex  4.547200e+00  1.003758e+01  8.870080e+01
     vertex  6.689014e+00  8.537867e+00  8.870080e+01
     vertex  6.689014e+00  8.537867e+00  1.370080e+01
   endloop
 endfacet
 facet normal  5.735764e-01  8.191520e-01  0.000000e+00
   outer loop
     vertex  4.547200e+00  1.003758e+01  8.870080e+01
     vertex  6.689014e+00  8.537867e+00  1.370080e+01
     vertex  4.547200e+00  1.003758e+01  1.370080e+01
   endloop
 endfacet
 facet normal  4.226183e-01  9.063078e-01  0.000000e+00
   outer loop
     vertex  2.177502e+00  1.114259e+01  8.870080e+01
     vertex  4.547200e+00  1.003758e+01  8.870080e+01
     vertex  4.547200e+00  1.003758e+01  1.370080e+01
   endloop
 endfacet
 facet normal  4.226183e-01  9.063078e-01  0.000000e+00
   outer loop
     vertex  2.177502e+00  1.114259e+01  8.870080e+01
     vertex  4.547200e+00  1.003758e+01  1.370080e+01
     vertex  2.177502e+00  1.114259e+01  1.370080e+01
   endloop
 endfacet
 facet normal  2.588190e-01  9.659258e-01  0.000000e+00
   outer loop
     vertex -3.480773e-01  1.181932e+01  8.870080e+01
     vertex  2.177502e+00  1.114259e+01  8.870080e+01
     vertex  2.177502e+00  1.114259e+01  1.370080e+01
   endloop
 endfacet
 facet normal  2.588190e-01  9.659258e-01  0.000000e+00
   outer loop
     vertex -3.480773e-01  1.181932e+01  8.870080e+01
     vertex  2.177502e+00  1.114259e+01  1.370080e+01
     vertex -3.480773e-01  1.181932e+01  1.370080e+01
   endloop
 endfacet
 facet normal  8.715574e-02  9.961947e-01  0.000000e+00
   outer loop
     vertex -2.952800e+00  1.204720e+01  8.870080e+01
     vertex -3.480773e-01  1.181932e+01  8.870080e+01
     vertex -3.480773e-01  1.181932e+01  1.370080e+01
   endloop
 endfacet
 facet normal  8.715574e-02  9.961947e-01  0.000000e+00
   outer loop
     vertex -2.952800e+00  1.204720e+01  8.870080e+01
     vertex -3.480773e-01  1.181932e+01  1.370080e+01
     vertex -2.952800e+00  1.204720e+01  1.370080e+01
   endloop
 endfacet
 facet normal -8.715574e-02  9.961947e-01  0.000000e+00
   outer loop
     vertex -5.557523e+00  1.181932e+01  8.870080e+01
     vertex -2.952800e+00  1.204720e+01  8.870080e+01
     vertex -2.952800e+00  1.204720e+01  1.370080e+01
   endloop
 endfacet
 facet normal -8.715574e-02  9.961947e-01  0.000000e+00
   outer loop
     vertex -5.557523e+00  1.181932e+01  8.870080e+01
     vertex -2.952800e+00  1.204720e+01  1.370080e+01
     vertex -5.557523e+00  1.181932e+01  1.370080e+01
   endloop
 endfacet
 facet normal -2.588190e-01  9.659258e-01  0.000000e+00
   outer loop
     vertex -8.083102e+00  1.114259e+01  8.870080e+01
     vertex -5.557523e+00  1.181932e+01  8.870080e+01
     vertex -5.557523e+00  1.181932e+01  1.370080e+01
   endloop
 endfacet
 facet normal -2.588190e-01  9.659258e-01  0.000000e+00
   outer loop
     vertex -8.083102e+00  1.114259e+01  8.870080e+01
     vertex -5.557523e+00  1.181932e+01  1.370080e+01
     vertex -8.083102e+00  1.114259e+01  1.370080e+01
   endloop
 endfacet
 facet normal -4.226183e-01  9.063078e-01  0.000000e+00
   outer loop
     vertex -1.045280e+01  1.003758e+01  8.870080e+01
     vertex -8.083102e+00  1.114259e+01  8.870080e+01
     vertex -8.083102e+00  1.114259e+01  1.370080e+01
   endloop
 endfacet
 facet normal -4.226183e-01  9.063078e-01  0.000000e+00
   outer loop
     vertex -1.045280e+01  1.003758e+01  8.870080e+01
     vertex -8.083102e+00  1.114259e+01  1.370080e+01
     vertex -1.045280e+01  1.003758e+01  1.370080e+01
   endloop
 endfacet
 facet normal -5.735764e-01  8.191520e-01  0.000000e+00
   outer loop
     vertex -1.259461e+01  8.537867e+00  8.870080e+01
     vertex -1.045280e+01  1.003758e+01  8.870080e+01
     vertex -1.045280e+01  1.003758e+01  1.370080e+01
   endloop
 endfacet
 facet normal -5.735764e-01  8.191520e-01  0.000000e+00
   outer loop
     vertex -1.259461e+01  8.537867e+00  8.870080e+01
     vertex -1.045280e+01  1.003758e+01  1.370080e+01
     vertex -1.259461e+01  8.537867e+00  1.370080e+01
   endloop
 endfacet
 facet normal -7.071068e-01  7.071068e-01  0.000000e+00
   outer loop
     vertex -1.259461e+01  8.537867e+00  8.870080e+01
     vertex -1.259461e+01  8.537867e+00  1.370080e+01
     vertex -1.444347e+01  6.689014e+00  1.370080e+01
   endloop
 endfacet
 facet normal -7.071068e-01  7.071068e-01  0.000000e+00
   outer loop
     vertex -1.444347e+01  6.689014e+00  8.870080e+01
     vertex -1.259461e+01  8.537867e+00  8.870080e+01
     vertex -1.444347e+01  6.689014e+00  1.370080e+01
   endloop
 endfacet
 facet normal -8.191520e-01  5.735764e-01  0.000000e+00
   outer loop
     vertex -1.594318e+01  4.547200e+00  8.870080e+01
     vertex -1.444347e+01  6.689014e+00  8.870080e+01
     vertex -1.444347e+01  6.689014e+00  1.370080e+01
   endloop
 endfacet
 facet normal -8.191520e-01  5.735764e-01  0.000000e+00
   outer loop
     vertex -1.594318e+01  4.547200e+00  8.870080e+01
     vertex -1.444347e+01  6.689014e+00  1.370080e+01
     vertex -1.594318e+01  4.547200e+00  1.370080e+01
   endloop
 endfacet
 facet normal -9.063078e-01  4.226183e-01  0.000000e+00
   outer loop
     vertex -1.704819e+01  2.177502e+00  8.870080e+01
     vertex -1.594318e+01  4.547200e+00  8.870080e+01
     vertex -1.594318e+01  4.547200e+00  1.370080e+01
   endloop
 endfacet
 facet normal -9.063078e-01  4.226183e-01  0.000000e+00
   outer loop
     vertex -1.704819e+01  2.177502e+00  8.870080e+01
     vertex -1.594318e+01  4.547200e+00  1.370080e+01
     vertex -1.704819e+01  2.177502e+00  1.370080e+01
   endloop
 endfacet
 facet normal -9.659258e-01  2.588190e-01  0.000000e+00
   outer loop
     vertex -1.772492e+01 -3.480773e-01  8.870080e+01
     vertex -1.704819e+01  2.177502e+00  8.870080e+01
     vertex -1.704819e+01  2.177502e+00  1.370080e+01
   endloop
 endfacet
 facet normal -9.659258e-01  2.588190e-01  0.000000e+00
   outer loop
     vertex -1.772492e+01 -3.480773e-01  8.870080e+01
     vertex -1.704819e+01  2.177502e+00  1.370080e+01
     vertex -1.772492e+01 -3.480773e-01  1.370080e+01
   endloop
 endfacet
 facet normal -9.961947e-01  8.715574e-02  0.000000e+00
   outer loop
     vertex -1.795280e+01 -2.952800e+00  8.870080e+01
     vertex -1.772492e+01 -3.480773e-01  8.870080e+01
     vertex -1.772492e+01 -3.480773e-01  1.370080e+01
   endloop
 endfacet
 facet normal -9.961947e-01  8.715574e-02  0.000000e+00
   outer loop
     vertex -1.795280e+01 -2.952800e+00  8.870080e+01
     vertex -1.772492e+01 -3.480773e-01  1.370080e+01
     vertex -1.795280e+01 -2.952800e+00  1.370080e+01
   endloop
 endfacet
 facet normal -9.961947e-01 -8.715574e-02 -0.000000e+00
   outer loop
     vertex -1.772492e+01 -5.557523e+00  8.870080e+01
     vertex -1.795280e+01 -2.952800e+00  1.370080e+01
     vertex -1.772492e+01 -5.557523e+00  1.370080e+01
   endloop
 endfacet
 facet normal -9.961947e-01 -8.715574e-02  0.000000e+00
   outer loop
     vertex -1.772492e+01 -5.557523e+00  8.870080e+01
     vertex -1.795280e+01 -2.952800e+00  8.870080e+01
     vertex -1.795280e+01 -2.952800e+00  1.370080e+01
   endloop
 endfacet
 facet normal -9.659258e-01 -2.588190e-01 -0.000000e+00
   outer loop
     vertex -1.704819e+01 -8.083102e+00  8.870080e+01
     vertex -1.772492e+01 -5.557523e+00  1.370080e+01
     vertex -1.704819e+01 -8.083102e+00  1.370080e+01
   endloop
 endfacet
 facet normal -9.659258e-01 -2.588190e-01  0.000000e+00
   outer loop
     vertex -1.704819e+01 -8.083102e+00  8.870080e+01
     vertex -1.772492e+01 -5.557523e+00  8.870080e+01
     vertex -1.772492e+01 -5.557523e+00  1.370080e+01
   endloop
 endfacet
 facet normal -9.063078e-01 -4.226183e-01 -0.000000e+00
   outer loop
     vertex -1.594318e+01 -1.045280e+01  8.870080e+01
     vertex -1.704819e+01 -8.083102e+00  1.370080e+01
     vertex -1.594318e+01 -1.045280e+01  1.370080e+01
   endloop
 endfacet
 facet normal -9.063078e-01 -4.226183e-01  0.000000e+00
   outer loop
     vertex -1.594318e+01 -1.045280e+01  8.870080e+01
     vertex -1.704819e+01 -8.083102e+00  8.870080e+01
     vertex -1.704819e+01 -8.083102e+00  1.370080e+01
   endloop
 endfacet
 facet normal -8.191520e-01 -5.735764e-01 -0.000000e+00
   outer loop
     vertex -1.444347e+01 -1.259461e+01  8.870080e+01
     vertex -1.594318e+01 -1.045280e+01  1.370080e+01
     vertex -1.444347e+01 -1.259461e+01  1.370080e+01
   endloop
 endfacet
 facet normal -7.071068e-01 -7.071068e-01 -0.000000e+00
   outer loop
     vertex -1.444347e+01 -1.259461e+01  8.870080e+01
     vertex -1.444347e+01 -1.259461e+01  1.370080e+01
     vertex -1.259461e+01 -1.444347e+01  1.370080e+01
   endloop
 endfacet
 facet normal -8.191520e-01 -5.735764e-01  0.000000e+00
   outer loop
     vertex -1.444347e+01 -1.259461e+01  8.870080e+01
     vertex -1.594318e+01 -1.045280e+01  8.870080e+01
     vertex -1.594318e+01 -1.045280e+01  1.370080e+01
   endloop
 endfacet
 facet normal -7.071068e-01 -7.071068e-01 -0.000000e+00
   outer loop
     vertex -1.259461e+01 -1.444347e+01  8.870080e+01
     vertex -1.444347e+01 -1.259461e+01  8.870080e+01
     vertex -1.259461e+01 -1.444347e+01  1.370080e+01
   endloop
 endfacet
 facet normal -5.735764e-01 -8.191520e-01 -0.000000e+00
   outer loop
     vertex -1.259461e+01 -1.444347e+01  8.870080e+01
     vertex -1.259461e+01 -1.444347e+01  1.370080e+01
     vertex -1.045280e+01 -1.594318e+01  1.370080e+01
   endloop
 endfacet
 facet normal -5.735764e-01 -8.191520e-01 -0.000000e+00
   outer loop
     vertex -1.045280e+01 -1.594318e+01  8.870080e+01
     vertex -1.259461e+01 -1.444347e+01  8.870080e+01
     vertex -1.045280e+01 -1.594318e+01  1.370080e+01
   endloop
 endfacet
 facet normal -4.226183e-01 -9.063078e-01 -0.000000e+00
   outer loop
     vertex -8.083102e+00 -1.704819e+01  8.870080e+01
     vertex -1.045280e+01 -1.594318e+01  1.370080e+01
     vertex -8.083102e+00 -1.704819e+01  1.370080e+01
   endloop
 endfacet
 facet normal -4.226183e-01 -9.063078e-01  0.000000e+00
   outer loop
     vertex -8.083102e+00 -1.704819e+01  8.870080e+01
     vertex -1.045280e+01 -1.594318e+01  8.870080e+01
     vertex -1.045280e+01 -1.594318e+01  1.370080e+01
   endloop
 endfacet
 facet normal -2.588190e-01 -9.659258e-01 -0.000000e+00
   outer loop
     vertex -5.557523e+00 -1.772492e+01  8.870080e+01
     vertex -8.083102e+00 -1.704819e+01  1.370080e+01
     vertex -5.557523e+00 -1.772492e+01  1.370080e+01
   endloop
 endfacet
 facet normal -2.588190e-01 -9.659258e-01  0.000000e+00
   outer loop
     vertex -5.557523e+00 -1.772492e+01  8.870080e+01
     vertex -8.083102e+00 -1.704819e+01  8.870080e+01
     vertex -8.083102e+00 -1.704819e+01  1.370080e+01
   endloop
 endfacet
 facet normal -8.715574e-02 -9.961947e-01 -0.000000e+00
   outer loop
     vertex -2.952800e+00 -1.795280e+01  8.870080e+01
     vertex -5.557523e+00 -1.772492e+01  1.370080e+01
     vertex -2.952800e+00 -1.795280e+01  1.370080e+01
   endloop
 endfacet
 facet normal -8.715574e-02 -9.961947e-01  0.000000e+00
   outer loop
     vertex -2.952800e+00 -1.795280e+01  8.870080e+01
     vertex -5.557523e+00 -1.772492e+01  8.870080e+01
     vertex -5.557523e+00 -1.772492e+01  1.370080e+01
   endloop
 endfacet
 facet normal  8.715574e-02 -9.961947e-01  0.000000e+00
   outer loop
     vertex -3.480773e-01 -1.772492e+01  8.870080e+01
     vertex -2.952800e+00 -1.795280e+01  1.370080e+01
     vertex -3.480773e-01 -1.772492e+01  1.370080e+01
   endloop
 endfacet
 facet normal  8.715574e-02 -9.961947e-01  0.000000e+00
   outer loop
     vertex -3.480773e-01 -1.772492e+01  8.870080e+01
     vertex -2.952800e+00 -1.795280e+01  8.870080e+01
     vertex -2.952800e+00 -1.795280e+01  1.370080e+01
   endloop
 endfacet
 facet normal  2.588190e-01 -9.659258e-01  0.000000e+00
   outer loop
     vertex  2.177502e+00 -1.704819e+01  8.870080e+01
     vertex -3.480773e-01 -1.772492e+01  1.370080e+01
     vertex  2.177502e+00 -1.704819e+01  1.370080e+01
   endloop
 endfacet
 facet normal  2.588190e-01 -9.659258e-01  0.000000e+00
   outer loop
     vertex  2.177502e+00 -1.704819e+01  8.870080e+01
     vertex -3.480773e-01 -1.772492e+01  8.870080e+01
     vertex -3.480773e-01 -1.772492e+01  1.370080e+01
   endloop
 endfacet
 facet normal  4.226183e-01 -9.063078e-01  0.000000e+00
   outer loop
     vertex  4.547200e+00 -1.594318e+01  8.870080e+01
     vertex  2.177502e+00 -1.704819e+01  1.370080e+01
     vertex  4.547200e+00 -1.594318e+01  1.370080e+01
   endloop
 endfacet
 facet normal  4.226183e-01 -9.063078e-01  0.000000e+00
   outer loop
     vertex  4.547200e+00 -1.594318e+01  8.870080e+01
     vertex  2.177502e+00 -1.704819e+01  8.870080e+01
     vertex  2.177502e+00 -1.704819e+01  1.370080e+01
   endloop
 endfacet
 facet normal  5.735764e-01 -8.191520e-01  0.000000e+00
   outer loop
     vertex  6.689014e+00 -1.444347e+01  8.870080e+01
     vertex  4.547200e+00 -1.594318e+01  8.870080e+01
     vertex  4.547200e+00 -1.594318e+01  1.370080e+01
   endloop
 endfacet
 facet normal  5.735764e-01 -8.191520e-01  0.000000e+00
   outer loop
     vertex  6.689014e+00 -1.444347e+01  8.870080e+01
     vertex  4.547200e+00 -1.594318e+01  1.370080e+01
     vertex  6.689014e+00 -1.444347e+01  1.370080e+01
   endloop
 endfacet
 facet normal  7.071068e-01 -7.071068e-01  0.000000e+00
   outer loop
     vertex  8.537867e+00 -1.259461e+01  8.870080e+01
     vertex  6.689014e+00 -1.444347e+01  8.870080e+01
     vertex  6.689014e+00 -1.444347e+01  1.370080e+01
   endloop
 endfacet
 facet normal  7.071068e-01 -7.071068e-01  0.000000e+00
   outer loop
     vertex  8.537867e+00 -1.259461e+01  8.870080e+01
     vertex  6.689014e+00 -1.444347e+01  1.370080e+01
     vertex  8.537867e+00 -1.259461e+01  1.370080e+01
   endloop
 endfacet
 facet normal  8.191520e-01 -5.735764e-01  0.000000e+00
   outer loop
     vertex  1.003758e+01 -1.045280e+01  8.870080e+01
     vertex  8.537867e+00 -1.259461e+01  8.870080e+01
     vertex  8.537867e+00 -1.259461e+01  1.370080e+01
   endloop
 endfacet
 facet normal  8.191520e-01 -5.735764e-01  0.000000e+00
   outer loop
     vertex  1.003758e+01 -1.045280e+01  8.870080e+01
     vertex  8.537867e+00 -1.259461e+01  1.370080e+01
     vertex  1.003758e+01 -1.045280e+01  1.370080e+01
   endloop
 endfacet
 facet normal  9.063078e-01 -4.226183e-01  0.000000e+00
   outer loop
     vertex  1.114259e+01 -8.083102e+00  8.870080e+01
     vertex  1.003758e+01 -1.045280e+01  8.870080e+01
     vertex  1.003758e+01 -1.045280e+01  1.370080e+01
   endloop
 endfacet
 facet normal  9.063078e-01 -4.226183e-01  0.000000e+00
   outer loop
     vertex  1.114259e+01 -8.083102e+00  8.870080e+01
     vertex  1.003758e+01 -1.045280e+01  1.370080e+01
     vertex  1.114259e+01 -8.083102e+00  1.370080e+01
   endloop
 endfacet
 facet normal  9.659258e-01 -2.588190e-01  0.000000e+00
   outer loop
     vertex  1.181932e+01 -5.557523e+00  8.870080e+01
     vertex  1.114259e+01 -8.083102e+00  8.870080e+01
     vertex  1.114259e+01 -8.083102e+00  1.370080e+01
   endloop
 endfacet
 facet normal  9.659258e-01 -2.588190e-01  0.000000e+00
   outer loop
     vertex  1.181932e+01 -5.557523e+00  8.870080e+01
     vertex  1.114259e+01 -8.083102e+00  1.370080e+01
     vertex  1.181932e+01 -5.557523e+00  1.370080e+01
   endloop
 endfacet
 facet normal  9.961947e-01 -8.715574e-02  0.000000e+00
   outer loop
     vertex  1.181932e+01 -5.557523e+00  8.870080e+01
     vertex  1.181932e+01 -5.557523e+00  1.370080e+01
     vertex  1.204720e+01 -2.952800e+00  1.370080e+01
   endloop
 endfacet
 facet normal  9.961947e-01 -8.715574e-02  0.000000e+00
   outer loop
     vertex  1.204720e+01 -2.952800e+00  8.870080e+01
     vertex  1.181932e+01 -5.557523e+00  8.870080e+01
     vertex  1.204720e+01 -2.952800e+00  1.370080e+01
   endloop
 endfacet
 facet normal  0.000000e+00  0.000000e+00  1.000000e+00
   outer loop
     vertex -1.704819e+01 -8.083102e+00  8.870080e+01
     vertex -1.594318e+01 -1.045280e+01  8.870080e+01
     vertex -1.444347e+01 -1.259461e+01  8.870080e+01
   endloop
 endfacet
 facet normal  0.000000e+00  0.000000e+00  1.000000e+00
   outer loop
     vertex -1.704819e+01 -8.083102e+00  8.870080e+01
     vertex -1.444347e+01 -1.259461e+01  8.870080e+01
     vertex -1.259461e+01 -1.444347e+01  8.870080e+01
   endloop
 endfacet
 facet normal  0.000000e+00  0.000000e+00  1.000000e+00
   outer loop
     vertex -1.704819e+01 -8.083102e+00  8.870080e+01
     vertex -1.259461e+01 -1.444347e+01  8.870080e+01
     vertex -1.045280e+01 -1.594318e+01  8.870080e+01
   endloop
 endfacet
 facet normal  0.000000e+00  0.000000e+00  1.000000e+00
   outer loop
     vertex -2.952800e+00 -1.795280e+01  8.870080e+01
     vertex -1.045280e+01 -1.594318e+01  8.870080e+01
     vertex -8.083102e+00 -1.704819e+01  8.870080e+01
   endloop
 endfacet
 facet normal  0.000000e+00  0.000000e+00  1.000000e+00
   outer loop
     vertex -2.952800e+00 -1.795280e+01  8.870080e+01
     vertex -8.083102e+00 -1.704819e+01  8.870080e+01
     vertex -5.557523e+00 -1.772492e+01  8.870080e+01
   endloop
 endfacet
 facet normal  0.000000e+00  0.000000e+00  1.000000e+00
   outer loop
     vertex  4.547200e+00 -1.594318e+01  8.870080e+01
     vertex -3.480773e-01 -1.772492e+01  8.870080e+01
     vertex  2.177502e+00 -1.704819e+01  8.870080e+01
   endloop
 endfacet
 facet normal  0.000000e+00  0.000000e+00  1.000000e+00
   outer loop
     vertex -1.594318e+01  4.547200e+00  8.870080e+01
     vertex -1.704819e+01  2.177502e+00  8.870080e+01
     vertex -1.772492e+01 -3.480773e-01  8.870080e+01
   endloop
 endfacet
 facet normal  0.000000e+00  0.000000e+00  1.000000e+00
   outer loop
     vertex -1.444347e+01  6.689014e+00  8.870080e+01
     vertex -1.772492e+01 -3.480773e-01  8.870080e+01
     vertex -1.795280e+01 -2.952800e+00  8.870080e+01
   endloop
 endfacet
 facet normal  0.000000e+00  0.000000e+00  1.000000e+00
   outer loop
     vertex -1.444347e+01  6.689014e+00  8.870080e+01
     vertex -1.795280e+01 -2.952800e+00  8.870080e+01
     vertex -1.772492e+01 -5.557523e+00  8.870080e+01
   endloop
 endfacet
 facet normal  0.000000e+00  0.000000e+00  1.000000e+00
   outer loop
     vertex -1.444347e+01  6.689014e+00  8.870080e+01
     vertex -1.594318e+01  4.547200e+00  8.870080e+01
     vertex -1.772492e+01 -3.480773e-01  8.870080e+01
   endloop
 endfacet
 facet normal  0.000000e+00  0.000000e+00  1.000000e+00
   outer loop
     vertex  8.537867e+00 -1.259461e+01  8.870080e+01
     vertex -2.952800e+00 -1.795280e+01  8.870080e+01
     vertex -3.480773e-01 -1.772492e+01  8.870080e+01
   endloop
 endfacet
 facet normal  0.000000e+00  0.000000e+00  1.000000e+00
   outer loop
     vertex  8.537867e+00 -1.259461e+01  8.870080e+01
     vertex  4.547200e+00 -1.594318e+01  8.870080e+01
     vertex  6.689014e+00 -1.444347e+01  8.870080e+01
   endloop
 endfacet
 facet normal  0.000000e+00  0.000000e+00  1.000000e+00
   outer loop
     vertex  8.537867e+00 -1.259461e+01  8.870080e+01
     vertex -3.480773e-01 -1.772492e+01  8.870080e+01
     vertex  4.547200e+00 -1.594318e+01  8.870080e+01
   endloop
 endfacet
 facet normal  0.000000e+00  0.000000e+00  1.000000e+00
   outer loop
     vertex -1.259461e+01  8.537867e+00  8.870080e+01
     vertex -1.444347e+01  6.689014e+00  8.870080e+01
     vertex -1.772492e+01 -5.557523e+00  8.870080e+01
   endloop
 endfacet
 facet normal  0.000000e+00  0.000000e+00  1.000000e+00
   outer loop
     vertex  1.114259e+01 -8.083102e+00  8.870080e+01
     vertex  8.537867e+00 -1.259461e+01  8.870080e+01
     vertex  1.003758e+01 -1.045280e+01  8.870080e+01
   endloop
 endfacet
 facet normal  0.000000e+00  0.000000e+00  1.000000e+00
   outer loop
     vertex  1.114259e+01 -8.083102e+00  8.870080e+01
     vertex -2.952800e+00 -1.795280e+01  8.870080e+01
     vertex  8.537867e+00 -1.259461e+01  8.870080e+01
   endloop
 endfacet
 facet normal  0.000000e+00  0.000000e+00  1.000000e+00
   outer loop
     vertex  2.177502e+00  1.114259e+01  8.870080e+01
     vertex -3.480773e-01  1.181932e+01  8.870080e+01
     vertex -2.952800e+00  1.204720e+01  8.870080e+01
   endloop
 endfacet
 facet normal  0.000000e+00  0.000000e+00  1.000000e+00
   outer loop
     vertex  2.177502e+00  1.114259e+01  8.870080e+01
     vertex -2.952800e+00  1.204720e+01  8.870080e+01
     vertex -5.557523e+00  1.181932e+01  8.870080e+01
   endloop
 endfacet
 facet normal  0.000000e+00  0.000000e+00  1.000000e+00
   outer loop
     vertex  2.177502e+00  1.114259e+01  8.870080e+01
     vertex -5.557523e+00  1.181932e+01  8.870080e+01
     vertex -8.083102e+00  1.114259e+01  8.870080e+01
   endloop
 endfacet
 facet normal  0.000000e+00  0.000000e+00  1.000000e+00
   outer loop
     vertex  2.177502e+00  1.114259e+01  8.870080e+01
     vertex -8.083102e+00  1.114259e+01  8.870080e+01
     vertex -1.045280e+01  1.003758e+01  8.870080e+01
   endloop
 endfacet
 facet normal  0.000000e+00  0.000000e+00  1.000000e+00
   outer loop
     vertex  1.114259e+01  2.177502e+00  8.870080e+01
     vertex  1.204720e+01 -2.952800e+00  8.870080e+01
     vertex  1.181932e+01 -3.480773e-01  8.870080e+01
   endloop
 endfacet
 facet normal  0.000000e+00  0.000000e+00  1.000000e+00
   outer loop
     vertex  1.114259e+01  2.177502e+00  8.870080e+01
     vertex  1.181932e+01 -5.557523e+00  8.870080e+01
     vertex  1.204720e+01 -2.952800e+00  8.870080e+01
   endloop
 endfacet
 facet normal  0.000000e+00  0.000000e+00  1.000000e+00
   outer loop
     vertex  8.537867e+00  6.689014e+00  8.870080e+01
     vertex  1.181932e+01 -5.557523e+00  8.870080e+01
     vertex  1.114259e+01  2.177502e+00  8.870080e+01
   endloop
 endfacet
 facet normal  0.000000e+00  0.000000e+00  1.000000e+00
   outer loop
     vertex  8.537867e+00  6.689014e+00  8.870080e+01
     vertex  1.114259e+01  2.177502e+00  8.870080e+01
     vertex  1.003758e+01  4.547200e+00  8.870080e+01
   endloop
 endfacet
 facet normal  0.000000e+00  0.000000e+00  1.000000e+00
   outer loop
     vertex  8.537867e+00  6.689014e+00  8.870080e+01
     vertex  1.114259e+01 -8.083102e+00  8.870080e+01
     vertex  1.181932e+01 -5.557523e+00  8.870080e+01
   endloop
 endfacet
 facet normal  0.000000e+00  0.000000e+00  1.000000e+00
   outer loop
     vertex  8.537867e+00  6.689014e+00  8.870080e+01
     vertex -1.704819e+01 -8.083102e+00  8.870080e+01
     vertex -1.045280e+01 -1.594318e+01  8.870080e+01
   endloop
 endfacet
 facet normal  0.000000e+00  0.000000e+00  1.000000e+00
   outer loop
     vertex  8.537867e+00  6.689014e+00  8.870080e+01
     vertex -1.045280e+01 -1.594318e+01  8.870080e+01
     vertex -2.952800e+00 -1.795280e+01  8.870080e+01
   endloop
 endfacet
 facet normal  0.000000e+00  0.000000e+00  1.000000e+00
   outer loop
     vertex  8.537867e+00  6.689014e+00  8.870080e+01
     vertex -2.952800e+00 -1.795280e+01  8.870080e+01
     vertex  1.114259e+01 -8.083102e+00  8.870080e+01
   endloop
 endfacet
 facet normal  0.000000e+00  0.000000e+00  1.000000e+00
   outer loop
     vertex  6.689014e+00  8.537867e+00  8.870080e+01
     vertex  4.547200e+00  1.003758e+01  8.870080e+01
     vertex  2.177502e+00  1.114259e+01  8.870080e+01
   endloop
 endfacet
 facet normal  0.000000e+00  0.000000e+00  1.000000e+00
   outer loop
     vertex  6.689014e+00  8.537867e+00  8.870080e+01
     vertex -1.045280e+01  1.003758e+01  8.870080e+01
     vertex -1.259461e+01  8.537867e+00  8.870080e+01
   endloop
 endfacet
 facet normal  0.000000e+00  0.000000e+00  1.000000e+00
   outer loop
     vertex  6.689014e+00  8.537867e+00  8.870080e+01
     vertex -1.772492e+01 -5.557523e+00  8.870080e+01
     vertex -1.704819e+01 -8.083102e+00  8.870080e+01
   endloop
 endfacet
 facet normal  0.000000e+00  0.000000e+00  1.000000e+00
   outer loop
     vertex  6.689014e+00  8.537867e+00  8.870080e+01
     vertex  2.177502e+00  1.114259e+01  8.870080e+01
     vertex -1.045280e+01  1.003758e+01  8.870080e+01
   endloop
 endfacet
 facet normal  0.000000e+00  0.000000e+00  1.000000e+00
   outer loop
     vertex  6.689014e+00  8.537867e+00  8.870080e+01
     vertex -1.259461e+01  8.537867e+00  8.870080e+01
     vertex -1.772492e+01 -5.557523e+00  8.870080e+01
   endloop
 endfacet
 facet normal  0.000000e+00  0.000000e+00  1.000000e+00
   outer loop
     vertex  6.689014e+00  8.537867e+00  8.870080e+01
     vertex -1.704819e+01 -8.083102e+00  8.870080e+01
     vertex  8.537867e+00  6.689014e+00  8.870080e+01
   endloop
 endfacet
 facet normal  0.000000e+00  0.000000e+00 -1.000000e+00
   outer loop
     vertex -1.704819e+01 -8.083102e+00  1.370080e+01
     vertex -1.444347e+01 -1.259461e+01  1.370080e+01
     vertex -1.594318e+01 -1.045280e+01  1.370080e+01
   endloop
 endfacet
 facet normal  0.000000e+00  0.000000e+00 -1.000000e+00
   outer loop
     vertex -1.704819e+01 -8.083102e+00  1.370080e+01
     vertex -1.259461e+01 -1.444347e+01  1.370080e+01
     vertex -1.444347e+01 -1.259461e+01  1.370080e+01
   endloop
 endfacet
 facet normal  0.000000e+00  0.000000e+00 -1.000000e+00
   outer loop
     vertex -1.704819e+01 -8.083102e+00  1.370080e+01
     vertex -1.045280e+01 -1.594318e+01  1.370080e+01
     vertex -1.259461e+01 -1.444347e+01  1.370080e+01
   endloop
 endfacet
 facet normal  0.000000e+00  0.000000e+00 -1.000000e+00
   outer loop
     vertex -2.952800e+00 -1.795280e+01  1.370080e+01
     vertex -8.083102e+00 -1.704819e+01  1.370080e+01
     vertex -1.045280e+01 -1.594318e+01  1.370080e+01
   endloop
 endfacet
 facet normal  0.000000e+00  0.000000e+00 -1.000000e+00
   outer loop
     vertex -2.952800e+00 -1.795280e+01  1.370080e+01
     vertex -5.557523e+00 -1.772492e+01  1.370080e+01
     vertex -8.083102e+00 -1.704819e+01  1.370080e+01
   endloop
 endfacet
 facet normal  0.000000e+00  0.000000e+00 -1.000000e+00
   outer loop
     vertex  4.547200e+00 -1.594318e+01  1.370080e+01
     vertex  2.177502e+00 -1.704819e+01  1.370080e+01
     vertex -3.480773e-01 -1.772492e+01  1.370080e+01
   endloop
 endfacet
 facet normal  0.000000e+00  0.000000e+00 -1.000000e+00
   outer loop
     vertex -1.594318e+01  4.547200e+00  1.370080e+01
     vertex -1.772492e+01 -3.480773e-01  1.370080e+01
     vertex -1.704819e+01  2.177502e+00  1.370080e+01
   endloop
 endfacet
 facet normal  0.000000e+00  0.000000e+00 -1.000000e+00
   outer loop
     vertex -1.444347e+01  6.689014e+00  1.370080e+01
     vertex -1.795280e+01 -2.952800e+00  1.370080e+01
     vertex -1.772492e+01 -3.480773e-01  1.370080e+01
   endloop
 endfacet
 facet normal  0.000000e+00  0.000000e+00 -1.000000e+00
   outer loop
     vertex -1.444347e+01  6.689014e+00  1.370080e+01
     vertex -1.772492e+01 -5.557523e+00  1.370080e+01
     vertex -1.795280e+01 -2.952800e+00  1.370080e+01
   endloop
 endfacet
 facet normal  0.000000e+00  0.000000e+00 -1.000000e+00
   outer loop
     vertex -1.444347e+01  6.689014e+00  1.370080e+01
     vertex -1.772492e+01 -3.480773e-01  1.370080e+01
     vertex -1.594318e+01  4.547200e+00  1.370080e+01
   endloop
 endfacet
 facet normal  0.000000e+00  0.000000e+00 -1.000000e+00
   outer loop
     vertex  8.537867e+00 -1.259461e+01  1.370080e+01
     vertex -3.480773e-01 -1.772492e+01  1.370080e+01
     vertex -2.952800e+00 -1.795280e+01  1.370080e+01
   endloop
 endfacet
 facet normal  0.000000e+00  0.000000e+00 -1.000000e+00
   outer loop
     vertex  8.537867e+00 -1.259461e+01  1.370080e+01
     vertex  6.689014e+00 -1.444347e+01  1.370080e+01
     vertex  4.547200e+00 -1.594318e+01  1.370080e+01
   endloop
 endfacet
 facet normal  0.000000e+00  0.000000e+00 -1.000000e+00
   outer loop
     vertex  8.537867e+00 -1.259461e+01  1.370080e+01
     vertex  4.547200e+00 -1.594318e+01  1.370080e+01
     vertex -3.480773e-01 -1.772492e+01  1.370080e+01
   endloop
 endfacet
 facet normal  0.000000e+00  0.000000e+00 -1.000000e+00
   outer loop
     vertex -1.259461e+01  8.537867e+00  1.370080e+01
     vertex -1.772492e+01 -5.557523e+00  1.370080e+01
     vertex -1.444347e+01  6.689014e+00  1.370080e+01
   endloop
 endfacet
 facet normal  0.000000e+00  0.000000e+00 -1.000000e+00
   outer loop
     vertex  1.114259e+01 -8.083102e+00  1.370080e+01
     vertex  1.003758e+01 -1.045280e+01  1.370080e+01
     vertex  8.537867e+00 -1.259461e+01  1.370080e+01
   endloop
 endfacet
 facet normal  0.000000e+00  0.000000e+00 -1.000000e+00
   outer loop
     vertex  1.114259e+01 -8.083102e+00  1.370080e+01
     vertex  8.537867e+00 -1.259461e+01  1.370080e+01
     vertex -2.952800e+00 -1.795280e+01  1.370080e+01
   endloop
 endfacet
 facet normal  0.000000e+00  0.000000e+00 -1.000000e+00
   outer loop
     vertex  2.177502e+00  1.114259e+01  1.370080e+01
     vertex -2.952800e+00  1.204720e+01  1.370080e+01
     vertex -3.480773e-01  1.181932e+01  1.370080e+01
   endloop
 endfacet
 facet normal  0.000000e+00  0.000000e+00 -1.000000e+00
   outer loop
     vertex  2.177502e+00  1.114259e+01  1.370080e+01
     vertex -5.557523e+00  1.181932e+01  1.370080e+01
     vertex -2.952800e+00  1.204720e+01  1.370080e+01
   endloop
 endfacet
 facet normal  0.000000e+00  0.000000e+00 -1.000000e+00
   outer loop
     vertex  2.177502e+00  1.114259e+01  1.370080e+01
     vertex -8.083102e+00  1.114259e+01  1.370080e+01
     vertex -5.557523e+00  1.181932e+01  1.370080e+01
   endloop
 endfacet
 facet normal -0.000000e+00  0.000000e+00 -1.000000e+00
   outer loop
     vertex  2.177502e+00  1.114259e+01  1.370080e+01
     vertex -1.045280e+01  1.003758e+01  1.370080e+01
     vertex -8.083102e+00  1.114259e+01  1.370080e+01
   endloop
 endfacet
 facet normal  0.000000e+00  0.000000e+00 -1.000000e+00
   outer loop
     vertex  1.114259e+01  2.177502e+00  1.370080e+01
     vertex  1.181932e+01 -3.480773e-01  1.370080e+01
     vertex  1.204720e+01 -2.952800e+00  1.370080e+01
   endloop
 endfacet
 facet normal  0.000000e+00  0.000000e+00 -1.000000e+00
   outer loop
     vertex  1.114259e+01  2.177502e+00  1.370080e+01
     vertex  1.204720e+01 -2.952800e+00  1.370080e+01
     vertex  1.181932e+01 -5.557523e+00  1.370080e+01
   endloop
 endfacet
 facet normal  0.000000e+00  0.000000e+00 -1.000000e+00
   outer loop
     vertex  8.537867e+00  6.689014e+00  1.370080e+01
     vertex  1.114259e+01  2.177502e+00  1.370080e+01
     vertex  1.181932e+01 -5.557523e+00  1.370080e+01
   endloop
 endfacet
 facet normal  0.000000e+00  0.000000e+00 -1.000000e+00
   outer loop
     vertex  8.537867e+00  6.689014e+00  1.370080e+01
     vertex  1.003758e+01  4.547200e+00  1.370080e+01
     vertex  1.114259e+01  2.177502e+00  1.370080e+01
   endloop
 endfacet
 facet normal  0.000000e+00  0.000000e+00 -1.000000e+00
   outer loop
     vertex  8.537867e+00  6.689014e+00  1.370080e+01
     vertex  1.181932e+01 -5.557523e+00  1.370080e+01
     vertex  1.114259e+01 -8.083102e+00  1.370080e+01
   endloop
 endfacet
 facet normal  0.000000e+00  0.000000e+00 -1.000000e+00
   outer loop
     vertex  8.537867e+00  6.689014e+00  1.370080e+01
     vertex -1.045280e+01 -1.594318e+01  1.370080e+01
     vertex -1.704819e+01 -8.083102e+00  1.370080e+01
   endloop
 endfacet
 facet normal  0.000000e+00  0.000000e+00 -1.000000e+00
   outer loop
     vertex  8.537867e+00  6.689014e+00  1.370080e+01
     vertex -2.952800e+00 -1.795280e+01  1.370080e+01
     vertex -1.045280e+01 -1.594318e+01  1.370080e+01
   endloop
 endfacet
 facet normal  0.000000e+00 -0.000000e+00 -1.000000e+00
   outer loop
     vertex  8.537867e+00  6.689014e+00  1.370080e+01
     vertex  1.114259e+01 -8.083102e+00  1.370080e+01
     vertex -2.952800e+00 -1.795280e+01  1.370080e+01
   endloop
 endfacet
 facet normal  0.000000e+00  0.000000e+00 -1.000000e+00
   outer loop
     vertex  6.689014e+00  8.537867e+00  1.370080e+01
     vertex  2.177502e+00  1.114259e+01  1.370080e+01
     vertex  4.547200e+00  1.003758e+01  1.370080e+01
   endloop
 endfacet
 facet normal  0.000000e+00  0.000000e+00 -1.000000e+00
   outer loop
     vertex  6.689014e+00  8.537867e+00  1.370080e+01
     vertex -1.259461e+01  8.537867e+00  1.370080e+01
     vertex -1.045280e+01  1.003758e+01  1.370080e+01
   endloop
 endfacet
 facet normal  0.000000e+00  0.000000e+00 -1.000000e+00
   outer loop
     vertex  6.689014e+00  8.537867e+00  1.370080e+01
     vertex -1.704819e+01 -8.083102e+00  1.370080e+01
     vertex -1.772492e+01 -5.557523e+00  1.370080e+01
   endloop
 endfacet
 facet normal  0.000000e+00  0.000000e+00 -1.000000e+00
   outer loop
     vertex  6.689014e+00  8.537867e+00  1.370080e+01
     vertex -1.045280e+01  1.003758e+01  1.370080e+01
     vertex  2.177502e+00  1.114259e+01  1.370080e+01
   endloop
 endfacet
 facet normal -0.000000e+00  0.000000e+00 -1.000000e+00
   outer loop
     vertex  6.689014e+00  8.537867e+00  1.370080e+01
     vertex -1.772492e+01 -5.557523e+00  1.370080e+01
     vertex -1.259461e+01  8.537867e+00  1.370080e+01
   endloop
 endfacet
 facet normal  0.000000e+00 -0.000000e+00 -1.000000e+00
   outer loop
     vertex  6.689014e+00  8.537867e+00  1.370080e+01
     vertex  8.537867e+00  6.689014e+00  1.370080e+01
     vertex -1.704819e+01 -8.083102e+00  1.370080e+01
   endloop
 endfacet
endsolid
